<?xml version="1.0" standalone="no"?>
<!DOCTYPE svg PUBLIC "-//W3C//DTD SVG 20010904//EN"
 "http://www.w3.org/TR/2001/REC-SVG-20010904/DTD/svg10.dtd">
<svg version="1.0" xmlns="http://www.w3.org/2000/svg"
 width="1210.000000pt" height="1210.000000pt" viewBox="0 0 1210.000000 1210.000000"
 preserveAspectRatio="xMidYMid meet">

<g transform="translate(0.000000,1210.000000) scale(0.100000,-0.100000)"
fill="#000000" stroke="none">
<path d="M5950 9979 c-279 -29 -560 -168 -763 -378 -230 -239 -372 -576 -339
-803 6 -41 14 -81 17 -89 4 -10 -20 -27 -82 -58 -136 -67 -287 -157 -411 -243
-63 -44 -115 -78 -116 -76 -1 1 -21 41 -45 86 -23 46 -97 186 -165 310 -68
125 -196 362 -286 527 -89 165 -169 308 -178 318 -28 32 -82 10 -82 -33 0 -17
124 -282 496 -1064 63 -131 114 -247 114 -257 0 -27 -68 -75 -88 -63 -24 14
-26 20 -560 1149 -36 77 -70 146 -76 154 -26 34 -85 32 -108 -3 -22 -33 0 -85
513 -1158 49 -103 89 -196 89 -207 0 -26 -38 -61 -65 -61 -12 0 -29 8 -38 18
-14 16 -78 143 -192 387 -18 39 -56 120 -85 180 -29 61 -117 247 -197 415 -80
168 -152 313 -160 323 -34 37 -113 7 -113 -43 0 -12 135 -305 301 -653 165
-348 303 -648 306 -668 4 -30 1 -39 -18 -53 -30 -21 -62 -20 -81 2 -9 9 -153
307 -321 662 -187 395 -314 650 -326 659 -18 11 -24 11 -46 -3 -34 -23 -32
-45 19 -166 24 -58 94 -229 156 -380 238 -582 301 -733 326 -782 47 -92 143
-170 269 -218 l25 -10 -52 -72 c-258 -362 -433 -784 -526 -1268 l-26 -135 -3
-957 -4 -958 -82 0 c-106 0 -167 -28 -218 -98 l-34 -47 -3 -545 c-2 -380 0
-557 8 -583 14 -49 74 -115 125 -138 28 -13 64 -19 123 -19 l82 0 0 -360 c0
-338 1 -363 20 -399 24 -48 66 -84 122 -105 39 -15 289 -16 2939 -14 l2896 3
49 30 c30 19 60 49 79 79 l30 49 3 359 3 358 73 0 c97 0 167 34 213 104 l33
48 0 560 c0 530 -1 561 -19 596 -41 80 -102 115 -213 120 l-87 4 -4 902 c-4
947 -4 953 -52 1208 -33 179 -135 520 -180 609 -21 40 -19 46 18 65 55 28 179
114 257 180 240 200 420 463 496 722 54 188 24 438 -72 598 -157 263 -461 322
-757 149 -92 -54 -204 -157 -259 -239 -90 -132 -169 -331 -204 -513 l-17 -89
-126 126 c-69 70 -145 143 -168 163 l-42 36 20 78 c29 106 31 296 5 408 -88
385 -390 736 -853 994 -273 151 -595 243 -947 271 -146 11 -214 11 -336 -1z
m546 -109 c257 -44 478 -119 678 -230 449 -250 721 -552 818 -906 28 -104 30
-307 5 -402 -20 -76 -74 -160 -131 -206 -62 -50 -185 -136 -195 -136 -5 0 -14
21 -20 46 -39 152 -181 348 -369 504 -267 224 -560 362 -892 422 -156 28 -463
30 -593 5 -183 -37 -401 -134 -521 -233 -66 -54 -146 -146 -172 -196 -8 -15
-19 -28 -24 -28 -14 0 -80 105 -107 170 -58 142 -53 275 18 455 51 131 113
235 204 338 80 92 221 216 312 274 120 77 281 127 462 143 138 12 394 3 527
-20z m-191 -935 c129 -18 349 -75 445 -115 425 -176 751 -474 861 -787 26 -74
38 -366 20 -483 -15 -93 -30 -154 -38 -146 -3 3 -15 31 -25 63 -74 219 -391
503 -751 673 -403 190 -859 252 -1254 170 -241 -50 -479 -165 -607 -293 -48
-48 -49 -49 -43 -18 22 111 173 451 253 572 103 156 205 232 394 295 82 27
249 65 345 77 75 10 309 5 400 -8z m3243 -444 c44 -82 62 -153 69 -266 5 -83
2 -115 -16 -184 -58 -231 -249 -495 -486 -671 -102 -75 -253 -156 -267 -142
-7 7 9 20 49 41 163 87 369 282 482 456 192 295 233 575 118 808 l-34 67 28
-26 c15 -14 41 -52 57 -83z m-4594 26 l38 -61 -22 -51 c-12 -27 -32 -74 -44
-104 -19 -49 -28 -58 -124 -123 -208 -138 -394 -297 -537 -456 -73 -81 -81
-87 -88 -68 -17 43 0 150 46 292 26 78 49 166 53 196 l6 54 102 76 c55 41 144
101 196 133 101 62 314 175 327 175 5 -1 25 -29 47 -63z m996 -282 c85 -8 166
-17 180 -20 14 -2 72 -12 130 -21 58 -9 110 -20 115 -24 6 -4 28 -11 50 -14
56 -10 190 -54 250 -81 28 -13 67 -30 88 -39 33 -13 37 -19 37 -52 0 -50 -33
-79 -107 -94 -75 -15 -87 -22 -91 -51 -6 -37 -29 -56 -85 -71 -101 -25 -408
-12 -492 22 -11 5 -42 14 -70 21 -51 12 -125 47 -136 63 -4 5 -14 6 -24 3 -14
-6 -13 -11 12 -43 l27 -37 -24 8 c-152 46 -301 160 -355 272 -49 100 -15 132
165 153 58 6 114 13 125 14 39 6 51 5 205 -9z m-657 -157 c21 -66 59 -113 134
-164 115 -78 251 -140 387 -174 95 -24 136 -26 136 -6 0 13 5 13 33 1 94 -39
202 -58 339 -59 76 -1 138 -4 138 -7 0 -3 -14 -18 -31 -35 -32 -30 -64 -82
-56 -91 3 -2 47 11 99 30 117 44 232 62 357 54 l96 -6 -29 23 c-29 24 -87 55
-141 76 l-30 12 68 22 c82 27 95 39 105 96 l7 45 48 -72 c57 -86 135 -248 171
-357 38 -112 76 -263 76 -300 0 -46 -27 -179 -55 -270 -13 -44 -23 -81 -21
-83 2 -2 18 18 35 46 37 57 119 137 156 151 84 32 145 -7 165 -105 20 -98 -10
-227 -68 -288 -38 -40 -100 -75 -148 -83 -38 -6 -77 6 -145 43 -4 2 -21 -15
-38 -39 -154 -210 -403 -351 -738 -419 -134 -27 -380 -27 -495 0 -343 81 -647
279 -750 489 -36 72 -36 78 -29 377 1 55 -5 165 -14 245 -12 102 -16 191 -12
300 5 175 26 267 96 415 36 76 112 185 129 185 5 0 16 -24 25 -52z m2794 -30
c89 -83 192 -190 252 -263 l41 -50 0 -92 c0 -123 24 -297 59 -434 27 -107 28
-115 15 -166 -8 -30 -14 -57 -14 -61 0 -4 -21 31 -46 77 -153 286 -315 509
-537 737 l-117 121 82 61 c46 34 103 79 127 102 25 22 48 40 52 40 4 0 43 -33
86 -72z m-2962 -17 c-25 -38 -45 -74 -45 -80 0 -6 -11 -11 -25 -11 -17 0 -25
-5 -25 -17 0 -15 2 -16 10 -3 9 13 10 13 10 0 0 -13 1 -13 10 0 11 17 13 1 4
-25 -5 -13 -8 -14 -15 -3 -7 10 -9 9 -9 -4 0 -10 -4 -18 -10 -18 -5 0 -10 -5
-10 -11 0 -8 6 -7 17 2 15 12 16 12 9 -6 -23 -56 -35 -92 -36 -107 0 -9 -8
-22 -17 -27 -14 -8 -15 -13 -5 -19 12 -8 11 -17 -5 -59 -3 -10 -5 -27 -5 -38
1 -13 -2 -11 -9 8 -8 21 -8 35 0 50 7 14 7 34 2 57 -8 33 -9 33 -10 7 -1 -16
-5 -26 -9 -23 -5 3 -5 -18 -1 -47 19 -128 21 -172 7 -190 -12 -16 -16 -6 -31
90 -22 130 -13 213 31 318 l29 68 12 -29 c10 -27 11 -25 6 16 -5 44 7 81 21
67 4 -3 1 -13 -6 -22 -7 -9 -10 -18 -6 -22 10 -10 18 4 20 36 2 44 13 47 20 5
4 -20 10 -33 14 -29 10 10 9 69 -1 76 -5 4 6 17 23 29 26 19 34 20 41 9 8 -13
13 -6 10 14 0 4 6 7 14 7 10 0 1 -22 -30 -69z m-311 -73 c-12 -57 -25 -120
-28 -140 -6 -31 -21 -50 -100 -117 -107 -92 -225 -214 -314 -325 l-62 -77 -45
97 -45 97 27 36 c57 77 362 370 468 449 61 45 113 82 116 82 3 0 -5 -46 -17
-102z m2308 -110 c14 -13 34 -28 44 -35 17 -10 17 -13 4 -23 -12 -8 -10 -10
10 -8 21 3 25 -1 22 -22 -1 -19 0 -22 8 -10 8 13 13 12 32 -8 20 -19 21 -24 8
-33 -11 -7 -7 -8 14 -3 28 7 29 6 22 -22 -5 -21 -4 -25 3 -14 9 13 14 12 33
-8 20 -20 21 -24 8 -33 -12 -9 -11 -10 6 -6 15 3 26 -4 40 -24 10 -16 22 -29
27 -29 4 0 7 -7 7 -15 0 -8 6 -15 13 -15 18 0 37 -58 32 -95 -4 -27 -4 -28 4
-5 l8 25 12 -28 c25 -62 0 -250 -30 -231 -5 3 -9 -4 -9 -15 0 -11 -5 -23 -10
-26 -7 -4 -9 2 -6 17 14 60 4 278 -13 278 -10 0 -28 -55 -36 -110 -4 -25 -16
-63 -28 -85 -20 -40 -20 -40 -29 -15 -11 28 -12 105 -2 121 4 8 9 7 16 -2 5
-9 6 -3 2 16 -8 36 -14 45 -14 21 0 -10 -7 -25 -16 -34 -15 -15 -16 -14 -9 7
4 12 2 35 -3 49 -5 15 -15 46 -21 70 -16 58 -38 55 -46 -5 -9 -63 -15 -83 -25
-83 -12 0 -21 47 -14 78 4 18 3 23 -4 14 -12 -17 -35 37 -36 85 -1 22 -5 32
-13 28 -15 -5 -14 -8 -16 65 -1 34 -9 64 -19 80 -22 30 -23 12 -3 -37 15 -34
20 -72 10 -61 -3 3 -7 14 -10 26 -4 22 -23 58 -44 84 -8 10 -15 33 -17 52 -2
29 1 36 19 39 40 8 44 7 69 -15z m723 -205 c194 -217 348 -441 470 -685 l64
-128 -18 -42 c-10 -24 -36 -81 -57 -127 l-39 -84 -34 84 c-47 117 -160 338
-226 444 -63 101 -174 252 -247 336 -36 42 -46 61 -43 80 3 13 8 70 12 127 3
56 10 102 14 102 4 0 51 -48 104 -107z m-4020 -23 c28 -16 64 -42 80 -57 43
-39 105 -123 105 -141 0 -8 -26 -54 -59 -101 -184 -270 -347 -644 -437 -998
-79 -314 -104 -542 -104 -946 l0 -268 -40 -38 c-34 -32 -40 -44 -40 -79 0 -43
38 -102 66 -102 12 0 14 -47 14 -290 l0 -290 -135 0 -136 0 4 918 c3 790 6
931 20 1017 59 359 140 622 284 912 108 219 284 493 316 493 6 0 35 -13 62
-30z m948 -87 c7 -90 28 -155 86 -271 l42 -83 -21 -68 c-38 -129 -22 -241 51
-356 17 -26 39 -76 50 -110 51 -166 247 -363 478 -480 69 -35 241 -105 257
-105 18 0 28 -20 17 -31 -19 -19 -254 -41 -378 -36 -186 9 -275 37 -390 126
-102 79 -177 123 -270 162 -135 56 -129 42 -135 338 -4 216 -7 250 -23 274
-29 44 -76 69 -120 63 -70 -8 -109 -67 -148 -222 l-22 -87 -40 104 -40 104 33
60 c51 94 192 302 266 390 67 81 284 305 295 305 3 0 9 -35 12 -77z m3077
-403 c93 -138 203 -342 267 -499 65 -160 143 -417 143 -471 0 -71 -133 -229
-252 -297 -67 -39 -80 -51 -89 -83 -18 -59 6 -96 92 -145 84 -47 173 -138 226
-231 29 -50 44 -67 66 -71 l27 -5 0 -557 c0 -533 -1 -557 -20 -588 -10 -17
-28 -37 -39 -42 -14 -8 -218 -10 -657 -9 l-637 3 -24 75 c-18 55 -22 79 -14
90 26 36 51 91 62 135 15 59 54 98 169 166 180 108 290 223 352 369 29 69 32
85 32 185 1 126 -9 167 -61 252 -82 133 -244 275 -472 412 -209 127 -339 181
-431 181 -33 0 -60 14 -60 31 0 3 93 6 208 6 227 -1 333 11 456 50 160 50 274
126 362 239 60 76 86 145 92 236 7 119 -8 149 -63 128 l-26 -10 8 53 c12 78 8
165 -11 229 l-16 58 43 87 c24 49 54 120 67 158 12 39 25 74 27 78 5 9 112
-123 173 -213z m-3727 -116 c-40 -70 -52 -84 -73 -84 -39 0 -90 -37 -108 -78
-11 -26 -17 -68 -17 -142 -1 -95 -5 -117 -44 -234 -98 -298 -151 -621 -151
-918 0 -112 -1 -119 -28 -160 -16 -24 -45 -68 -65 -98 -20 -30 -52 -71 -72
-90 l-35 -34 0 260 c0 142 5 309 10 369 45 488 210 977 470 1394 l65 104 48
-103 47 -102 -47 -84z m3217 202 c0 -3 -4 -8 -10 -11 -5 -3 -10 -1 -10 4 0 6
5 11 10 11 6 0 10 -2 10 -4z m-2320 -141 c8 -30 10 -73 6 -132 -9 -112 -13
-128 -31 -113 -40 33 -59 188 -31 255 20 48 41 44 56 -10z m3834 -160 c74
-194 127 -397 169 -650 20 -125 21 -169 24 -1042 l4 -913 -141 0 -140 0 0 711
c0 650 -2 724 -20 875 -31 252 -101 558 -170 738 -8 23 -1 46 50 163 33 75 67
147 76 161 16 25 94 64 106 53 4 -3 23 -47 42 -96z m-4393 -77 c11 -25 13 -79
11 -223 -3 -208 3 -248 52 -360 27 -63 30 -81 30 -170 0 -123 -25 -199 -75
-229 -60 -35 -178 -3 -259 70 -23 22 -77 60 -119 85 -76 46 -101 79 -88 112 9
25 64 48 126 54 46 5 63 13 100 45 24 21 49 38 55 38 6 1 25 7 41 15 l30 15
-40 -6 c-43 -6 -89 -27 -120 -54 -12 -10 -44 -20 -76 -23 -59 -6 -115 -29
-136 -56 -7 -9 -13 -32 -13 -52 0 -30 7 -43 38 -70 20 -19 56 -43 80 -53 49
-22 55 -47 17 -72 -57 -37 -151 1 -191 78 -30 58 -10 207 38 278 44 63 68 64
157 5 64 -42 79 -38 29 8 -29 27 -42 53 -73 147 -76 237 -87 420 -24 420 20 0
42 -42 97 -190 55 -147 138 -297 156 -279 3 3 10 41 16 85 25 188 32 233 47
294 28 117 67 153 94 88z m4067 -420 c32 -107 68 -269 86 -383 9 -55 18 -112
21 -128 4 -25 3 -26 -15 -17 -41 22 -130 121 -169 189 -23 39 -48 74 -56 78
-8 5 -16 21 -17 35 -2 26 109 298 122 298 4 0 17 -33 28 -72z m-3865 -219
c196 -99 302 -179 340 -260 30 -65 50 -160 44 -219 -10 -109 -90 -216 -179
-241 -119 -32 -359 32 -520 138 -21 14 -38 29 -38 33 0 4 19 12 43 18 63 16
105 49 152 118 80 116 113 269 81 376 -17 59 -20 78 -11 78 3 0 42 -19 88 -41z
m1523 -144 c7 -2 9 -18 4 -47 -7 -49 -16 -68 -32 -68 -27 0 -48 -34 -48 -75 0
-24 -3 -56 -6 -72 -5 -27 -8 -29 -60 -29 l-55 0 6 71 c4 38 10 92 16 118 5 26
9 61 9 77 0 15 6 30 13 33 13 4 134 -2 153 -8z m2184 -67 c13 -24 56 -75 95
-113 38 -39 89 -82 113 -95 23 -13 42 -26 42 -29 -1 -3 -26 -22 -56 -41 -64
-41 -162 -140 -195 -199 -12 -23 -26 -41 -29 -41 -3 0 -16 17 -27 38 -34 58
-125 153 -192 197 -33 22 -61 42 -61 45 0 3 21 18 46 34 69 44 144 117 189
185 22 33 43 61 46 61 3 0 16 -19 29 -42z m-1931 0 c6 -17 19 -40 28 -50 15
-17 15 -20 -13 -49 -69 -73 -182 -139 -261 -153 -57 -10 -63 -2 -56 72 3 37
10 75 14 84 5 10 44 27 92 42 46 14 103 39 128 56 24 16 47 30 51 30 3 0 11
-14 17 -32z m-583 -19 c10 -12 38 -32 61 -46 l43 -25 0 -62 c0 -35 -3 -65 -6
-69 -12 -11 -78 23 -116 60 -21 20 -43 51 -48 69 -10 29 -8 37 11 64 27 36 30
36 55 9z m-714 -34 c128 -35 233 -40 426 -21 89 9 166 16 171 16 5 0 12 -15
15 -34 4 -18 22 -49 41 -69 19 -20 35 -37 35 -39 0 -2 -32 -4 -72 -5 -93 -2
-106 -15 -121 -118 -14 -94 -3 -119 63 -153 57 -30 119 -25 216 14 99 41 130
38 251 -23 102 -51 173 -71 211 -59 32 10 56 85 47 143 -11 75 -40 132 -74
146 l-30 13 47 26 c26 15 73 54 104 88 51 54 60 60 78 50 13 -7 19 -17 16 -27
-15 -39 -19 -66 -7 -59 6 4 11 13 11 20 0 7 11 23 25 36 39 36 96 23 240 -57
293 -162 496 -320 581 -454 62 -99 71 -262 21 -373 -30 -64 -76 -125 -147
-195 -44 -42 -138 -111 -152 -111 -3 0 -4 24 -1 54 3 30 3 66 -1 80 -9 37 -73
104 -115 122 -52 23 -137 13 -195 -21 -26 -15 -50 -24 -54 -21 -19 20 103 182
196 261 77 65 145 99 244 124 52 13 64 20 48 24 -25 6 -134 -9 -161 -23 -10
-6 -25 -10 -34 -10 -14 0 -13 7 9 46 14 26 26 49 26 52 0 14 -54 -47 -72 -81
-14 -29 -24 -37 -36 -32 -9 3 -80 24 -157 46 -95 26 -154 49 -184 69 -24 17
-46 29 -48 26 -12 -12 27 -53 66 -71 23 -10 41 -24 41 -31 0 -7 -15 -66 -34
-131 -19 -65 -37 -145 -41 -178 -14 -130 -14 -132 -54 -159 -32 -22 -44 -25
-82 -20 -44 6 -47 5 -78 -32 -27 -33 -32 -46 -29 -82 3 -46 3 -47 -67 -57 -22
-3 -53 -10 -70 -15 -46 -14 -240 -31 -261 -23 -10 3 -25 15 -32 25 -25 35 -93
62 -158 62 -50 1 -72 -5 -124 -31 -34 -18 -75 -33 -89 -33 -23 0 -148 45 -223
80 -32 15 -32 11 -17 187 23 276 63 439 166 683 82 194 80 189 60 170 -16 -16
-87 -153 -130 -251 -14 -31 -29 -59 -33 -62 -21 -11 -437 22 -451 37 -2 2 12
19 31 39 55 58 80 135 80 247 0 77 -4 104 -22 144 -12 27 -22 50 -22 52 0 7
19 4 112 -21z m-1172 -108 c20 -8 57 -17 83 -21 48 -7 49 -8 77 -70 15 -34 42
-79 60 -99 60 -68 207 -160 332 -207 78 -29 151 -40 263 -41 55 0 154 -7 220
-15 66 -8 165 -18 220 -22 80 -6 100 -10 99 -22 -1 -8 -11 -60 -22 -115 -12
-55 -26 -149 -31 -210 -6 -60 -15 -160 -21 -222 -7 -71 -22 -148 -41 -210 -17
-54 -50 -174 -74 -268 l-44 -170 -586 -3 -587 -2 -34 34 -34 34 0 170 0 170
53 87 c65 108 151 195 248 249 64 36 76 47 88 82 13 37 12 44 -5 79 -13 27
-34 46 -70 65 -29 15 -63 35 -75 44 -50 34 -136 128 -168 183 -19 32 -43 71
-54 87 -19 28 -20 40 -14 230 3 111 9 211 13 223 l6 22 32 -23 c17 -13 47 -31
66 -39z m267 -81 c-6 -19 -36 49 -42 95 -5 43 -5 43 20 -20 14 -35 24 -69 22
-75z m8 84 c-3 -5 -1 -10 4 -10 6 0 11 -5 11 -11 0 -8 -5 -8 -15 1 -13 11 -12
30 1 30 3 0 2 -4 -1 -10z m165 -30 c0 -5 -10 -10 -22 -9 -22 0 -22 1 -3 9 11
5 21 9 23 9 1 1 2 -3 2 -9z m4250 -830 l0 -660 -107 0 -108 0 2 556 2 556 24
36 c44 67 153 171 180 172 4 0 7 -297 7 -660z m-4836 287 c37 -64 165 -192
234 -232 28 -16 52 -32 52 -35 0 -3 -21 -16 -47 -30 -65 -34 -203 -172 -243
-243 l-33 -58 -29 51 c-40 71 -156 190 -234 241 l-65 42 51 29 c70 40 183 149
232 225 22 34 44 63 47 63 3 0 19 -24 35 -53z m3196 -352 c62 -32 92 -111 70
-181 -14 -45 -80 -117 -122 -135 -18 -7 -30 -21 -33 -38 -23 -112 -61 -187
-108 -209 -45 -22 -65 -8 -84 59 -9 32 -18 57 -21 54 -3 -3 -4 -30 -3 -60 l2
-55 -34 0 c-18 0 -42 7 -54 15 -27 19 -53 95 -53 154 0 35 -3 42 -12 33 -7 -7
-13 -40 -13 -79 0 -42 -4 -68 -12 -70 -6 -2 -26 9 -44 25 -31 28 -34 35 -37
106 -6 104 17 172 80 241 52 58 91 77 198 99 36 7 84 23 105 34 48 25 133 29
175 7z m-3353 -272 c18 -33 40 -66 48 -73 12 -10 15 -37 15 -131 l0 -119 -100
0 -100 0 0 248 1 247 52 -55 c29 -31 67 -83 84 -117z m2833 136 c0 -5 -11 -32
-26 -60 -21 -42 -27 -49 -40 -38 -20 16 -13 62 14 93 20 24 52 27 52 5z
m-1134 -288 c36 -22 79 -43 96 -46 16 -4 32 -13 35 -21 3 -8 -4 -49 -16 -93
-12 -43 -25 -112 -29 -152 l-7 -74 -132 -3 c-92 -2 -133 1 -133 8 0 32 78 336
105 408 6 17 9 16 81 -27z m1079 -60 c22 -43 62 -71 102 -71 23 0 46 -9 65
-25 29 -25 45 -29 104 -25 23 1 35 -5 47 -24 11 -16 28 -26 49 -28 31 -3 34
-7 55 -68 12 -36 22 -71 22 -77 1 -10 -123 -13 -589 -13 l-590 0 0 54 c0 62 8
71 43 55 68 -31 172 41 196 135 l11 46 54 0 c78 0 195 18 295 45 113 30 118
30 136 -4z m1823 -458 c12 -10 24 -30 27 -45 9 -38 -20 -63 -105 -89 -66 -20
-72 -20 -95 -5 -44 29 -28 62 50 111 80 50 93 53 123 28z m-4149 -8 c35 -17
81 -71 81 -92 0 -22 -29 -53 -50 -53 -9 0 -29 14 -45 30 -16 17 -33 30 -38 30
-5 0 -25 -13 -44 -30 -38 -34 -55 -37 -77 -14 -22 21 -20 46 6 79 47 60 111
79 167 50z m-779 -205 c48 -48 10 -100 -72 -100 l-48 0 0 -137 c0 -174 -12
-206 -77 -211 -32 -2 -47 2 -62 17 -19 19 -21 33 -21 176 l0 155 -55 0 c-42 0
-60 5 -75 20 -23 23 -26 49 -7 72 19 25 32 26 220 27 164 1 178 0 197 -19z
m325 -5 c25 -24 25 -27 25 -193 0 -175 -8 -225 -40 -242 -27 -14 -73 -12 -96
4 -17 13 -19 30 -22 205 -3 200 1 225 41 241 38 15 67 11 92 -15z m558 16 c33
-13 43 -46 23 -76 -15 -23 -23 -24 -113 -27 l-98 -3 0 -35 0 -35 78 -6 c87 -6
114 -21 103 -62 -7 -29 -29 -37 -113 -37 l-63 0 0 -35 0 -35 90 0 c77 0 93 -3
110 -20 11 -11 20 -27 20 -35 0 -8 -9 -24 -20 -35 -18 -18 -33 -20 -170 -20
-203 0 -190 -16 -190 233 0 105 4 197 8 203 18 27 53 33 179 34 72 0 143 -4
156 -9z m359 -2 c11 -6 43 -59 73 -122 l52 -111 57 110 c69 136 98 155 181
120 46 -20 55 -57 55 -244 0 -191 -8 -212 -82 -212 -65 0 -78 23 -79 143 l0
102 -50 -102 c-55 -112 -74 -128 -117 -96 -14 10 -47 57 -73 103 -27 47 -49
83 -50 80 0 -3 -1 -48 -2 -101 -2 -106 -12 -129 -56 -129 -54 0 -56 5 -59 192
-4 193 5 244 48 265 31 16 75 17 102 2z m1296 -5 c26 -18 29 -60 5 -86 -12
-13 -30 -18 -69 -18 l-53 0 -3 -154 c-3 -177 -11 -196 -77 -196 -72 0 -81 23
-81 204 l0 146 -44 0 c-81 0 -115 30 -96 85 10 30 35 34 220 34 144 1 180 -2
198 -15z m329 -11 c8 -10 13 -47 13 -90 l0 -73 69 0 69 0 4 75 c4 92 18 110
84 110 72 0 74 -8 74 -226 0 -173 -1 -188 -21 -213 -16 -20 -29 -26 -58 -26
-54 0 -72 24 -78 105 l-6 65 -68 0 -69 0 0 -65 c0 -52 -4 -69 -20 -85 -26 -26
-80 -26 -111 -1 -23 19 -24 25 -28 187 -3 184 5 239 42 254 31 13 89 4 104
-17z m639 6 c11 -9 14 -50 14 -201 0 -225 -7 -248 -75 -248 -17 0 -41 7 -53
16 -21 15 -22 20 -22 212 0 108 4 202 8 208 23 34 94 41 128 13z m779 10 c21
-6 54 -26 72 -44 28 -28 33 -40 33 -78 0 -29 -7 -53 -19 -68 -19 -24 -19 -24
10 -57 37 -41 39 -94 6 -143 -36 -54 -66 -64 -214 -67 -183 -5 -173 -18 -173
231 0 242 -5 235 155 236 50 1 108 -4 130 -10z m445 -15 c12 -11 16 -47 18
-162 2 -82 8 -152 14 -159 13 -16 60 -17 76 -1 8 8 12 55 12 144 0 72 5 145
11 162 16 46 78 57 123 21 l28 -22 -4 -168 c-3 -190 -9 -206 -84 -244 -57 -29
-183 -27 -246 4 -74 36 -88 74 -88 250 0 82 5 151 11 162 21 40 95 47 129 13z
m690 -79 c52 -52 99 -95 103 -95 4 0 7 37 7 83 0 92 4 103 42 112 19 5 32 1
47 -14 20 -20 21 -32 21 -205 0 -102 -4 -196 -10 -210 -10 -28 -46 -42 -86
-32 -14 4 -73 50 -130 102 l-104 95 0 -88 c0 -99 -7 -113 -55 -113 -53 0 -55
6 -55 226 l0 203 27 21 c50 39 84 24 193 -85z m-4647 -404 c53 -21 41 -86 -17
-97 -51 -9 -91 13 -91 51 0 45 52 67 108 46z m2733 -12 c8 -6 14 -22 14 -34 0
-29 -19 -45 -62 -51 -48 -7 -83 15 -83 51 0 21 7 33 25 43 28 14 84 10 106 -9z
m2202 -720 l-3 -351 -33 -29 -32 -29 -2886 0 -2886 0 -34 34 -34 34 0 346 0
346 2955 0 2956 0 -3 -351z"/>
<path d="M5255 9376 c-24 -148 30 -332 125 -421 31 -30 31 -30 -14 55 -55 105
-74 169 -90 308 -12 105 -13 106 -21 58z"/>
<path d="M7450 9280 c-1 -105 -22 -197 -68 -289 -40 -79 -104 -174 -136 -200
-9 -8 -22 -23 -27 -33 -10 -18 -8 -18 11 -8 39 21 101 83 144 144 79 113 113
230 102 354 -9 106 -25 127 -26 32z"/>
<path d="M5778 8203 c12 -2 32 -2 45 0 12 2 2 4 -23 4 -25 0 -35 -2 -22 -4z"/>
<path d="M6408 8113 c7 -3 16 -2 19 1 4 3 -2 6 -13 5 -11 0 -14 -3 -6 -6z"/>
<path d="M5795 7900 c3 -5 8 -10 11 -10 2 0 4 5 4 10 0 6 -5 10 -11 10 -5 0
-7 -4 -4 -10z"/>
<path d="M5330 7869 c-51 -14 -130 -51 -130 -61 0 -4 17 -8 38 -8 94 -1 233
-53 333 -126 73 -53 88 -41 48 39 -60 119 -184 186 -289 156z"/>
<path d="M5315 7561 c-91 -42 -170 -171 -182 -294 -3 -37 -3 -67 1 -67 4 0 15
19 25 43 28 62 72 118 124 155 26 18 47 32 47 30 0 -2 -9 -27 -20 -56 -11 -29
-25 -95 -30 -147 -19 -180 18 -265 126 -294 53 -14 101 0 142 41 42 45 62 106
69 213 11 186 -54 331 -169 379 -49 21 -84 20 -133 -3z m97 -238 c12 -10 18
-30 18 -56 0 -31 -6 -45 -31 -68 -38 -35 -43 -36 -74 -4 -35 34 -33 78 4 116
33 33 56 36 83 12z m176 -111 c4 -28 -14 -52 -38 -52 -26 0 -43 26 -36 55 6
22 11 26 39 23 25 -2 33 -8 35 -26z"/>
<path d="M6582 7540 c-18 -4 -36 -11 -40 -15 -4 -5 1 -5 11 -2 10 4 43 7 73 7
34 0 53 4 49 10 -7 11 -45 12 -93 0z"/>
<path d="M6729 7525 c18 -8 38 -15 45 -14 15 1 -46 28 -64 28 -8 0 0 -6 19
-14z"/>
<path d="M6563 7451 c-102 -48 -193 -188 -196 -300 -1 -31 2 -58 7 -61 4 -3
19 25 33 61 21 58 108 178 119 166 3 -2 -1 -17 -7 -33 -25 -63 -38 -143 -39
-230 0 -78 3 -96 23 -124 35 -52 67 -70 145 -81 64 -9 75 -8 112 11 83 42 131
171 113 302 -6 40 -9 75 -7 77 6 7 64 -118 75 -164 18 -71 32 -41 27 57 -7
139 -76 256 -183 311 -59 30 -167 34 -222 8z m62 -211 c29 -32 25 -88 -9 -116
-53 -47 -106 -21 -106 52 0 34 5 47 26 63 34 27 66 27 89 1z m203 -72 c17 -17
15 -53 -3 -68 -8 -7 -25 -10 -40 -6 -29 7 -44 49 -25 71 15 18 51 20 68 3z"/>
<path d="M5773 6903 c-44 -28 -53 -39 -53 -62 0 -29 33 -81 44 -70 3 3 -1 20
-10 37 -17 36 -13 49 21 62 22 8 63 56 54 64 -2 2 -28 -12 -56 -31z"/>
<path d="M7330 6883 c-40 -15 -110 -107 -110 -146 0 -8 -9 -21 -21 -28 -13 -9
-18 -20 -14 -31 9 -22 31 -23 51 -3 8 8 21 12 28 9 36 -14 91 64 70 98 -9 14
-24 -11 -24 -40 0 -25 -26 -40 -42 -24 -7 7 -6 21 2 47 20 61 75 100 118 84
24 -9 30 2 10 19 -18 14 -50 21 -68 15z"/>
<path d="M5650 6612 c0 -5 11 -19 25 -32 14 -13 30 -40 35 -59 28 -102 136
-215 228 -241 49 -13 121 -13 163 2 83 28 176 140 199 241 7 28 17 61 22 71 9
17 7 18 -13 12 -13 -4 -67 -18 -119 -32 -172 -46 -388 -32 -511 31 -16 9 -29
12 -29 7z m599 -137 c-34 -70 -83 -126 -131 -151 -41 -21 -124 -29 -175 -15
-49 13 -139 81 -155 117 -10 21 -8 28 18 53 28 27 32 28 179 35 92 4 177 13
220 24 39 10 71 15 73 11 2 -5 -11 -38 -29 -74z"/>
<path d="M5095 8057 c-17 -17 -17 -19 -2 -14 9 4 17 4 17 0 0 -3 -8 -12 -17
-20 -16 -13 -16 -13 3 -4 24 12 39 40 27 52 -4 4 -17 -2 -28 -14z"/>
<path d="M4966 7862 c-2 -4 4 -9 15 -9 11 -1 17 2 14 8 -7 11 -22 12 -29 1z"/>
<path d="M4999 7810 c-5 -35 -5 -35 -16 -10 -11 23 -12 23 -12 4 -1 -12 6 -27
14 -34 12 -10 15 -7 20 13 4 14 5 34 2 44 -2 11 -6 4 -8 -17z"/>
<path d="M7295 7640 c3 -5 8 -10 11 -10 2 0 4 5 4 10 0 6 -5 10 -11 10 -5 0
-7 -4 -4 -10z"/>
<path d="M7160 7610 c0 -5 5 -10 10 -10 6 0 10 5 10 10 0 6 -4 10 -10 10 -5 0
-10 -4 -10 -10z"/>
<path d="M7362 7568 c5 -15 28 -23 28 -10 0 5 -7 13 -16 16 -10 4 -14 1 -12
-6z"/>
<path d="M7166 7552 c-2 -4 -1 -14 5 -22 7 -12 9 -10 9 8 0 23 -5 28 -14 14z"/>
<path d="M7197 7481 c-4 -19 -5 -36 -2 -39 10 -11 16 7 13 40 l-3 33 -8 -34z"/>
<path d="M7290 7450 c0 -5 5 -10 10 -10 6 0 10 5 10 10 0 6 -4 10 -10 10 -5 0
-10 -4 -10 -10z"/>
<path d="M7356 7423 c-4 -9 -2 -21 4 -27 7 -7 10 -2 10 17 0 31 -5 34 -14 10z"/>
<path d="M7462 7343 c1 -34 0 -65 -5 -69 -4 -4 -7 -19 -6 -33 l0 -26 11 25
c12 29 14 147 3 158 -4 4 -5 -21 -3 -55z"/>
<path d="M7350 7365 c0 -8 5 -15 10 -15 6 0 10 7 10 15 0 8 -4 15 -10 15 -5 0
-10 -7 -10 -15z"/>
<path d="M7321 7320 c0 -8 3 -21 8 -29 7 -11 10 -9 16 8 4 13 4 25 1 28 -3 4
-6 -2 -7 -13 0 -18 -1 -18 -9 1 -6 13 -9 15 -9 5z"/>
<path d="M5579 5421 c-69 -70 -4 -190 80 -147 45 24 65 59 58 104 -12 73 -85
96 -138 43z"/>
<path d="M6273 5373 c-34 -7 -53 -41 -53 -97 0 -58 25 -86 76 -86 40 0 84 47
84 91 0 37 -26 89 -44 89 -8 0 -20 2 -28 4 -7 2 -23 1 -35 -1z"/>
<path d="M5459 5021 c-61 -61 -27 -171 53 -171 57 0 108 54 108 115 0 40 -50
85 -95 85 -27 0 -44 -8 -66 -29z"/>
<path d="M6166 4949 c-68 -80 6 -196 95 -149 25 14 49 62 49 98 0 79 -93 112
-144 51z"/>
<path d="M7500 3629 l0 -51 32 6 c40 8 58 23 58 50 0 31 -19 46 -57 46 l-33 0
0 -51z"/>
<path d="M7500 3450 l0 -62 38 7 c48 9 62 21 62 55 0 34 -17 49 -64 57 l-36 6
0 -63z"/>
<path d="M6281 2617 c-18 -7 -42 -23 -52 -36 -58 -71 -41 -212 28 -239 61 -24
108 -18 144 18 61 60 20 154 -66 154 -20 0 -34 4 -32 11 2 5 26 10 53 10 56 0
74 8 74 34 0 44 -85 72 -149 48z m55 -172 c8 -32 -1 -55 -21 -55 -10 0 -15 10
-15 33 0 51 25 66 36 22z"/>
<path d="M6613 2616 c-38 -17 -53 -43 -53 -90 0 -53 34 -87 88 -88 23 0 42 -4
42 -10 0 -16 -43 -25 -73 -14 -24 9 -31 8 -43 -8 -18 -26 -18 -32 6 -56 35
-35 136 -26 177 16 52 52 41 213 -17 244 -33 18 -94 20 -127 6z m71 -71 c7
-28 -10 -69 -25 -60 -10 7 -12 68 -2 78 12 13 21 7 27 -18z"/>
<path d="M4240 2607 c-76 -38 -77 -215 -1 -260 34 -20 105 -22 141 -4 81 40
77 228 -5 265 -34 16 -103 15 -135 -1z m94 -79 c8 -30 8 -92 0 -112 -16 -41
-54 2 -54 59 0 61 41 101 54 53z"/>
<path d="M4593 2613 c-21 -8 -16 -61 7 -68 11 -3 24 -4 29 0 15 9 62 -6 58
-19 -2 -6 -19 -13 -38 -16 -28 -4 -34 -9 -34 -30 0 -22 5 -25 38 -28 23 -2 37
-8 37 -17 0 -10 -17 -15 -57 -17 -57 -3 -58 -3 -61 -36 -3 -27 1 -34 23 -42
14 -6 52 -10 83 -10 75 0 113 28 115 83 1 22 -6 44 -15 54 -15 14 -15 19 -2
44 19 38 9 76 -27 94 -27 14 -129 19 -156 8z"/>
<path d="M4948 2610 c-40 -25 -10 -76 39 -66 32 7 63 -8 48 -23 -6 -5 -23 -11
-40 -13 -22 -2 -31 -9 -33 -25 -3 -22 4 -26 62 -35 11 -2 21 -8 23 -15 3 -8
-15 -13 -59 -15 -60 -3 -63 -4 -66 -30 -5 -39 29 -58 106 -58 57 0 67 3 93 29
34 34 37 68 10 102 -17 22 -17 27 -5 44 20 27 17 69 -7 91 -24 22 -143 31
-171 14z"/>
<path d="M5310 2607 c-29 -14 -40 -68 -19 -93 18 -22 62 -13 74 14 19 43 40
20 24 -27 -7 -19 -29 -44 -55 -62 -54 -37 -69 -61 -54 -89 10 -18 21 -20 104
-20 101 0 120 9 114 52 -2 18 -11 24 -38 28 l-35 5 27 18 c53 36 62 114 19
158 -25 25 -37 29 -83 29 -29 0 -64 -6 -78 -13z"/>
<path d="M5865 2595 c-14 -13 -25 -33 -25 -44 0 -50 75 -69 95 -23 14 31 25
28 25 -7 0 -22 -11 -39 -46 -70 -26 -23 -50 -41 -55 -41 -12 0 -21 -38 -14
-60 6 -18 15 -20 104 -20 109 0 128 9 117 55 -5 20 -13 25 -39 25 l-32 0 27
25 c31 28 48 80 41 119 -9 44 -47 66 -115 66 -49 0 -63 -4 -83 -25z"/>
<path d="M7141 2606 c-15 -18 -3 -46 20 -46 17 0 19 -9 19 -99 0 -77 4 -103
16 -115 20 -20 58 -20 74 0 17 20 26 209 11 247 -10 25 -14 27 -70 27 -37 0
-63 -5 -70 -14z"/>
<path d="M7451 2603 c-28 -23 -34 -79 -10 -94 27 -17 59 -10 71 16 15 33 28
32 28 -4 0 -28 -18 -49 -98 -113 -24 -20 -28 -48 -10 -66 8 -8 46 -12 104 -12
101 0 121 10 110 55 -5 20 -13 25 -38 25 l-32 0 26 28 c51 52 58 121 16 159
-30 27 -136 31 -167 6z"/>
<path d="M7796 2604 c-33 -32 -7 -70 41 -60 32 7 59 -6 49 -23 -4 -6 -21 -11
-37 -11 -33 0 -48 -22 -29 -45 7 -8 28 -15 46 -15 24 0 34 -5 34 -15 0 -11
-13 -15 -53 -15 -75 0 -98 -29 -57 -70 16 -16 33 -20 81 -20 89 0 128 26 129
87 0 20 -8 40 -20 51 -18 17 -19 20 -5 32 25 21 19 75 -11 99 -34 27 -144 30
-168 5z"/>
</g>
</svg>
